<svg xmlns="http://www.w3.org/2000/svg" width="142.177" height="127.832" viewBox="0 0 142.177 127.832"><g transform="translate(-2.505 -7.655)"><path d="M67.993,128.33c-3.06-3.429-10.7-10.114-16.98-14.856-18.6-14.049-21.136-16.082-28.689-23.038C8.4,77.614,2.484,64.731,2.5,47.263c.01-8.527.591-11.812,2.979-16.838C9.535,21.9,15.5,15.561,23.133,11.685c5.4-2.745,8.069-3.964,17.093-4.014,9.44-.052,11.427,1.048,16.98,4.1,6.759,3.713,13.716,11.649,15.154,17.286l.888,3.482,2.19-4.795c12.377-27.1,51.894-26.691,65.646.674,4.363,8.681,4.842,27.216.973,37.657-5.046,13.62-14.524,24-36.434,39.915-14.369,10.435-30.631,26.224-31.763,28.442C72.546,137,73.8,134.834,67.993,128.33Z" transform="translate(0 0)" fill="red"/></g></svg>